# xmcd CD database file
#
# Track frame offsets:
#	150
#	30402
#	59168
#	94803
#	114868
#	134993
#	157053
#	178460
#	195300
#	216520
#	239392
#	263083
#	282263
#	302901
#
# Disc length: 4399 seconds
#
# Revision: 0
# Processed by: cddbd v1.5.2PL0 Copyright (c) Steve Scherf et al.
# Submitted via: CDex 1.70beta2
#
DISCID=da112d0e
DTITLE=Santo Rico Compilation - Mambo Rico #2
DYEAR=1900
DGENRE=Salsa
TTITLE0=Lady
TTITLE1=Tell Me Why
TTITLE2=Perdoname
TTITLE3=Hoy Quiero Confesar
TTITLE4=Sientate Ahi
TTITLE5=El Que Se Fue
TTITLE6=Luna Negra
TTITLE7=A El
TTITLE8=Si Usted Me Quiere
TTITLE9=Juntos
TTITLE10=Te Voy Hacer Feliz
TTITLE11=Como Ellas Son
TTITLE12=El Ultimo Son
TTITLE13=Celia
EXTD=
EXTT0=
EXTT1=
EXTT2=
EXTT3=
EXTT4=
EXTT5=
EXTT6=
EXTT7=
EXTT8=
EXTT9=
EXTT10=
EXTT11=
EXTT12=
EXTT13=
PLAYORDER=
